<svg width="40" height="40" viewBox="0 0 40 40" fill="none" xmlns="http://www.w3.org/2000/svg">
<g clip-path="url(#clip0_164_45)">
<path d="M35.8333 36.6666H4.16667C1.87 36.6666 0 34.7966 0 32.5V29.1666C0 28.7066 0.373333 28.3333 0.833333 28.3333H1.66667C3.505 28.3333 5 26.8383 5 25C5 23.1616 3.505 21.6666 1.66667 21.6666H0.833333C0.373333 21.6666 0 21.2933 0 20.8333V17.5C0 15.2033 1.87 13.3333 4.16667 13.3333H35.8333C38.13 13.3333 40 15.2033 40 17.5V20.8333C40 21.2933 39.6267 21.6666 39.1667 21.6666H38.3333C36.495 21.6666 35 23.1616 35 25C35 25.89 35.3467 26.7266 35.9767 27.3566C36.605 27.9866 37.4417 28.3333 38.3317 28.3333H39.165C39.625 28.3333 39.9983 28.7066 39.9983 29.1666V32.5C40 34.7966 38.13 36.6666 35.8333 36.6666ZM1.66667 30V32.5C1.66667 33.8783 2.78833 35 4.16667 35H35.8333C37.2117 35 38.3333 33.8783 38.3333 32.5V30C36.9983 30 35.7417 29.48 34.7983 28.5366C33.8533 27.5916 33.3333 26.335 33.3333 25C33.3333 22.2433 35.5767 20 38.3333 20V17.5C38.3333 16.1216 37.2117 15 35.8333 15H4.16667C2.78833 15 1.66667 16.1216 1.66667 17.5V20C4.42333 20 6.66667 22.2433 6.66667 25C6.66667 27.7566 4.42333 30 1.66667 30Z" fill="url(#paint0_linear_164_45)"/>
<path d="M14.1663 16.6666C13.7063 16.6666 13.333 16.2933 13.333 15.8333V14.1666C13.333 13.7066 13.7063 13.3333 14.1663 13.3333C14.6263 13.3333 14.9997 13.7066 14.9997 14.1666V15.8333C14.9997 16.2933 14.6263 16.6666 14.1663 16.6666Z" fill="url(#paint1_linear_164_45)"/>
<path d="M14.1663 30.7684C13.7063 30.7684 13.333 30.395 13.333 29.935V27.1167C13.333 26.6567 13.7063 26.2834 14.1663 26.2834C14.6263 26.2834 14.9997 26.655 14.9997 27.1167V29.9367C14.9997 30.3967 14.6263 30.7684 14.1663 30.7684ZM14.1663 23.7184C13.7063 23.7184 13.333 23.345 13.333 22.885V20.065C13.333 19.605 13.7063 19.2317 14.1663 19.2317C14.6263 19.2317 14.9997 19.605 14.9997 20.065V22.885C14.9997 23.345 14.6263 23.7184 14.1663 23.7184Z" fill="url(#paint2_linear_164_45)"/>
<path d="M14.1663 36.6666C13.7063 36.6666 13.333 36.2933 13.333 35.8333V34.1666C13.333 33.7066 13.7063 33.3333 14.1663 33.3333C14.6263 33.3333 14.9997 33.7066 14.9997 34.1666V35.8333C14.9997 36.2933 14.6263 36.6666 14.1663 36.6666Z" fill="url(#paint3_linear_164_45)"/>
<path d="M4.16632 15C3.82799 15 3.50965 14.7933 3.38632 14.4583C3.22465 14.0267 3.44299 13.5467 3.87465 13.3867L30.3747 3.49166C31.663 3.00833 33.1763 3.73166 33.6163 5.03L36.6213 13.8983C36.768 14.335 36.5347 14.8067 36.0997 14.955C35.668 15.1033 35.1913 14.8683 35.043 14.4333L32.038 5.565C31.8913 5.13166 31.388 4.895 30.9563 5.05166L4.45632 14.9467C4.36132 14.9833 4.26299 15 4.16632 15Z" fill="url(#paint4_linear_164_45)"/>
</g>
<defs>
<linearGradient id="paint0_linear_164_45" x1="28.8083" y1="36.6666" x2="2.55864" y2="27.7244" gradientUnits="userSpaceOnUse">
<stop stop-color="#7D3CC1"/>
<stop offset="1" stop-color="#4E4FEB"/>
</linearGradient>
<linearGradient id="paint1_linear_164_45" x1="14.5334" y1="16.6666" x2="13.3246" y2="16.5465" gradientUnits="userSpaceOnUse">
<stop stop-color="#7D3CC1"/>
<stop offset="1" stop-color="#4E4FEB"/>
</linearGradient>
<linearGradient id="paint2_linear_164_45" x1="14.5334" y1="30.7684" x2="13.3137" y2="30.7333" gradientUnits="userSpaceOnUse">
<stop stop-color="#7D3CC1"/>
<stop offset="1" stop-color="#4E4FEB"/>
</linearGradient>
<linearGradient id="paint3_linear_164_45" x1="14.5334" y1="36.6666" x2="13.3246" y2="36.5465" gradientUnits="userSpaceOnUse">
<stop stop-color="#7D3CC1"/>
<stop offset="1" stop-color="#4E4FEB"/>
</linearGradient>
<linearGradient id="paint4_linear_164_45" x1="27.3391" y1="15" x2="8.88343" y2="4.51493" gradientUnits="userSpaceOnUse">
<stop stop-color="#7D3CC1"/>
<stop offset="1" stop-color="#4E4FEB"/>
</linearGradient>
<clipPath id="clip0_164_45">
<rect width="40" height="40" fill="white"/>
</clipPath>
</defs>
</svg>
